<svg xmlns="http://www.w3.org/2000/svg" width="46" height="47" fill="none" viewBox="0 0 46 47"><rect width="45.7" height="45.7" y=".605" fill="#858CDD" rx="22.85"/><g clip-path="url(#clip0)"><path fill="#fff" d="M19.7294 33.4202C19.475 33.6761 19.1278 33.8189 18.7671 33.8189C18.4065 33.8189 18.0593 33.6761 17.8048 33.4202L10.1197 25.7337C9.3221 24.9362 9.3221 23.6429 10.1197 22.8468L11.082 21.8843C11.8798 21.0867 13.1715 21.0867 13.9691 21.8843L18.7671 26.6826L31.7321 13.7173C32.53 12.9198 33.823 12.9198 34.6193 13.7173L35.5816 14.6799C36.3792 15.4774 36.3792 16.7704 35.5816 17.5668L19.7294 33.4202Z"/></g><defs><clipPath id="clip0"><rect width="26.658" height="26.658" fill="#fff" transform="translate(9.52148 10.1289)"/></clipPath></defs></svg>